<?xml version="1.0" encoding="utf-8"?>
<!-- Generator: Adobe Illustrator 24.2.3, SVG Export Plug-In . SVG Version: 6.00 Build 0)  -->
<svg version="1.1" id="Layer_1" xmlns="http://www.w3.org/2000/svg" xmlns:xlink="http://www.w3.org/1999/xlink" x="0px" y="0px"
	 viewBox="0 0 133.8 27.4" style="enable-background:new 0 0 133.8 27.4;" xml:space="preserve">
<style type="text/css">
	.st0{fill:#E9327C;}
	.st1{fill:#1DACE3;}
	.st2{fill:#001A49;}
</style>
<path class="st0" d="M19,22.8L1.1,10.4c-1.8-1.3-1.2-3.9,1.1-4.5l19.1-5.2c1.4-0.5,3,0.2,3.5,1.6c0.1,0.3,0.2,0.6,0.2,0.9l-1.1,17.5
	C23.5,22.9,20.8,24,19,22.8z"/>
<path class="st1" d="M13.3,25.8L2.7,5.1C2,3.7,2.6,2,4,1.3C4.5,1,5.2,0.9,5.8,1l19.6,3c1.6,0.2,2.7,1.7,2.4,3.3
	c0,0.3-0.1,0.6-0.3,0.9l-9,17.6c-0.7,1.4-2.5,2-3.9,1.2C14,26.8,13.6,26.3,13.3,25.8z"/>
<path class="st2" d="M24.8,3.9L15,2.4L3,5.7L7.8,15L19,22.8c0.2,0.2,0.5,0.3,0.8,0.4l4.3-8.3L24.8,3.9z"/>
<path class="st2" d="M74.2,6.3c0-1,0.8-1.8,1.8-1.8c1,0,1.8,0.8,1.8,1.8c0,1-0.8,1.8-1.8,1.8l0,0C75,8.2,74.2,7.3,74.2,6.3z
	 M74.5,9.1h3.1v10.2h-3.1V9.1z"/>
<path class="st2" d="M90.8,14.2c0.1,2.8-2,5.2-4.8,5.4c0,0,0,0,0,0c-1.1,0.1-2.3-0.4-3-1.2v5h-3.1V9.1h3.1v1c0.8-0.8,1.9-1.3,3-1.2
	C88.7,8.9,90.9,11.3,90.8,14.2C90.8,14.1,90.8,14.2,90.8,14.2z M87.7,14.2c0-1.3-1.1-2.4-2.5-2.4c-1.3,0-2.4,1.1-2.4,2.5
	c0,1.3,1.1,2.4,2.4,2.4c1.3,0.1,2.4-0.9,2.4-2.2C87.7,14.3,87.7,14.3,87.7,14.2z"/>
<path class="st2" d="M100.2,16.2c0,2.3-2,3.3-4.2,3.3c-1.8,0.2-3.6-0.8-4.4-2.4l2.7-1.5c0.2,0.8,0.9,1.3,1.7,1.2
	c0.7,0,1.1-0.2,1.1-0.6c0-1.1-5-0.5-5-4.1c0-2.2,1.9-3.3,4-3.3c1.6-0.1,3.1,0.8,4,2.2l-2.6,1.4c-0.2-0.5-0.8-0.9-1.4-0.9
	c-0.5,0-0.9,0.2-0.9,0.6C95.2,13.2,100.2,12.4,100.2,16.2z"/>
<path class="st2" d="M111.4,9.1v10.2h-3.1v-1c-0.7,0.9-1.8,1.3-2.9,1.2c-2.1,0-3.8-1.5-3.8-4.2V9.1h3.1v5.8
	c-0.1,0.9,0.6,1.8,1.5,1.8c0.1,0,0.2,0,0.3,0c1.1,0,1.9-0.7,1.9-2.1V9.1H111.4z"/>
<path class="st2" d="M128.9,13v6.3h-3.1v-6c0-1-0.5-1.7-1.5-1.7c-1,0-1.6,0.7-1.6,1.9v5.7h-3.1v-6c0-1-0.5-1.7-1.5-1.7
	c-1,0-1.6,0.7-1.6,1.9v5.7h-3.1V9.1h3.1V10c0.6-0.8,1.7-1.3,2.7-1.2c1.1-0.1,2.1,0.5,2.7,1.3c0.7-0.9,1.8-1.4,3-1.3
	C127.4,8.8,128.9,10.5,128.9,13z"/>
<circle class="st2" cx="131.5" cy="6.7" r="2.3"/>
<path class="st2" d="M32.5,4.4h3.1v14.9h-3.1V4.4z M37.3,14.2c0-3,2.4-5.4,5.4-5.4c3,0,5.4,2.4,5.4,5.4c0,3-2.4,5.4-5.4,5.4
	c0,0,0,0,0,0C39.7,19.6,37.3,17.2,37.3,14.2C37.3,14.2,37.3,14.2,37.3,14.2z M45,14.2c0-1.3-1.1-2.3-2.4-2.3c-1.3,0-2.3,1.1-2.3,2.4
	c0,1.3,1.1,2.3,2.3,2.3c1.3,0,2.3-1,2.4-2.2C45,14.3,45,14.2,45,14.2L45,14.2z M60.3,9.1v9.7c0,3.4-2.7,4.9-5.4,4.9
	c-1.9,0.1-3.8-0.8-4.8-2.5l2.6-1.5c0.4,0.9,1.4,1.4,2.3,1.3c1.1,0.2,2.1-0.6,2.3-1.7c0-0.1,0-0.3,0-0.4v-0.9c-0.7,0.9-1.8,1.4-3,1.3
	c-2.9-0.1-5.1-2.5-5-5.3c0.1-2.7,2.3-4.9,5-5c1.1-0.1,2.3,0.4,3,1.3v-1L60.3,9.1z M57.3,14c0.1-1.4-1-2.5-2.4-2.6
	c-1.4-0.1-2.5,1-2.6,2.4s1,2.5,2.4,2.6c0,0,0.1,0,0.1,0c1.3,0.1,2.4-0.9,2.5-2.1C57.3,14.1,57.3,14,57.3,14L57.3,14z M62,14.2
	c0-3,2.4-5.4,5.4-5.4c3,0,5.4,2.4,5.4,5.4c0,3-2.4,5.4-5.4,5.4c0,0,0,0,0,0C64.4,19.6,62,17.2,62,14.2C62,14.2,62,14.2,62,14.2
	L62,14.2z M69.7,14.2c0-1.3-1.1-2.3-2.4-2.3C66,11.9,65,13,65,14.3c0,1.3,1.1,2.3,2.3,2.3c1.3,0,2.3-1,2.3-2.2
	C69.7,14.3,69.7,14.2,69.7,14.2L69.7,14.2z"/>
</svg>
